<?xml version="1.0" standalone="no"?>
<!DOCTYPE svg PUBLIC "-//W3C//DTD SVG 20010904//EN"
 "http://www.w3.org/TR/2001/REC-SVG-20010904/DTD/svg10.dtd">
<svg version="1.0" xmlns="http://www.w3.org/2000/svg"
 width="1024.000000pt" height="1024.000000pt" viewBox="0 0 1024.000000 1024.000000"
 preserveAspectRatio="xMidYMid meet">

<g transform="translate(0.000000,1024.000000) scale(0.100000,-0.100000)"
fill="#000000" stroke="none">
<path d="M0 5120 l0 -5120 5120 0 5120 0 0 5120 0 5120 -5120 0 -5120 0 0
-5120z m4988 2856 c9 -2 44 -7 77 -11 77 -8 294 -65 410 -106 92 -32 296 -130
369 -177 186 -120 417 -331 539 -494 209 -278 365 -642 410 -958 l13 -95 50 3
c206 10 269 7 309 -15 50 -26 109 -85 129 -128 9 -18 16 -58 16 -88 0 -94 -48
-164 -160 -238 l-25 -16 0 -356 0 -355 37 -17 c55 -24 135 -116 153 -177 17
-60 19 -147 5 -200 -17 -61 -83 -134 -151 -169 -34 -17 -79 -34 -102 -37 -22
-4 -44 -14 -48 -22 -4 -8 -28 -57 -53 -108 -25 -52 -59 -109 -76 -128 l-30
-35 20 -38 c23 -46 18 -73 -31 -157 -52 -92 -152 -142 -256 -130 l-52 6 -88
-82 c-49 -46 -119 -102 -155 -126 -41 -27 -71 -54 -78 -73 -34 -80 -230 -167
-315 -139 -34 11 -42 9 -140 -39 -165 -82 -321 -111 -592 -111 l-138 0 -36
-38 c-51 -54 -100 -75 -164 -70 -112 9 -174 77 -183 199 -4 48 0 64 23 104 16
26 40 52 54 57 14 6 40 17 58 24 77 34 141 11 216 -78 39 -46 40 -49 38 -119
-2 -73 12 -88 24 -26 13 63 14 64 65 71 49 7 71 20 48 29 -7 3 -3 6 9 6 33 1
444 78 538 100 57 14 84 26 95 41 47 68 84 100 148 125 37 15 90 28 117 29 62
3 87 16 217 113 57 43 121 87 142 98 36 19 37 22 30 55 -12 59 -6 119 17 160
13 23 26 36 29 29 4 -6 9 -2 13 10 3 14 26 31 62 47 48 22 67 26 112 21 l55
-6 14 37 c8 20 31 74 51 120 20 45 34 84 32 85 -2 2 -21 16 -41 31 -24 18 -50
52 -70 93 -27 55 -33 80 -36 153 -5 98 1 115 61 179 54 59 109 91 155 91 l38
0 -3 363 c-2 199 -6 372 -9 385 -4 22 -8 23 -82 20 l-77 -3 -12 -70 c-48 -280
-73 -363 -167 -561 -74 -154 -140 -261 -250 -404 -367 -475 -863 -747 -1444
-790 -171 -13 -334 -3 -531 31 -218 38 -368 85 -552 174 -151 72 -223 116
-349 210 -119 89 -354 321 -346 341 3 8 0 13 -6 11 -14 -3 -155 202 -206 301
-137 262 -211 531 -232 842 -13 187 -5 372 25 528 22 116 85 354 101 379 7 12
23 49 35 83 27 78 107 230 125 237 7 2 25 36 40 74 15 37 31 66 35 63 5 -3 23
18 41 45 17 28 37 51 44 51 7 0 23 19 36 43 13 23 30 42 38 42 8 0 27 17 43
38 15 20 32 37 39 37 6 0 27 18 45 40 19 22 39 38 44 34 5 -3 9 -1 9 4 0 12
149 128 239 186 280 180 612 293 928 316 103 7 372 5 421 -4z m-1575 -4141
c214 -56 401 -249 439 -455 l12 -60 54 0 c65 0 112 20 135 59 20 34 100 77
160 86 71 11 163 -42 202 -115 35 -66 27 -167 -18 -236 -70 -106 -235 -107
-341 -3 l-49 49 -78 0 -77 0 -7 -47 c-3 -27 -25 -86 -47 -132 -55 -116 -149
-209 -272 -271 l-89 -45 -156 1 c-177 1 -222 13 -342 84 -160 95 -269 293
-269 490 0 63 33 258 49 287 5 11 17 26 26 33 9 7 22 29 30 47 23 54 113 125
249 195 86 44 282 61 389 33z"/>
<path d="M4564 7644 c-324 -36 -614 -151 -884 -351 -99 -73 -272 -250 -336
-343 -63 -91 -167 -272 -199 -344 -66 -149 -114 -376 -122 -576 -17 -439 82
-806 301 -1113 97 -135 181 -225 321 -342 142 -118 156 -127 297 -200 65 -34
116 -63 114 -66 -2 -2 5 -5 17 -6 12 0 60 -13 106 -27 45 -14 149 -40 230 -57
257 -54 530 -43 811 32 100 27 217 72 313 120 183 93 414 269 468 356 12 18
26 33 34 33 7 0 19 15 26 33 7 17 25 43 39 57 15 14 35 45 45 70 22 54 35 71
45 65 4 -2 20 24 36 60 16 35 34 65 39 65 6 0 25 38 43 85 19 47 40 92 47 99
19 18 91 278 106 379 15 101 15 402 -1 517 -13 95 -49 245 -81 335 -35 99
-137 295 -200 382 -33 45 -57 88 -54 96 3 7 -4 25 -16 38 l-21 24 17 -28 c9
-16 14 -31 12 -33 -7 -7 -47 52 -42 60 3 3 2 4 -2 1 -8 -6 -33 14 -33 27 0 5
5 6 12 2 7 -4 8 -3 4 5 -4 6 -11 9 -15 7 -4 -3 -34 22 -67 55 -69 71 -188 166
-294 236 -150 99 -384 188 -596 229 -119 22 -395 32 -520 18z m-69 -408 c31
-21 34 -72 5 -108 -38 -49 -132 -74 -181 -48 -25 14 -51 66 -46 93 4 19 4 19
6 -4 0 -14 8 -34 16 -45 14 -18 14 -16 8 16 -3 19 -10 43 -14 52 -13 24 -12
26 24 49 26 16 44 19 94 16 35 -3 74 -12 88 -21z m-414 -205 c37 -37 47 -64
31 -87 -4 -6 -45 -31 -92 -55 -68 -35 -104 -63 -181 -141 -53 -54 -103 -98
-110 -98 -20 1 -50 20 -92 57 -34 30 -36 34 -25 65 6 18 19 40 28 48 10 8 25
30 34 48 9 17 23 32 31 32 8 0 24 14 37 30 27 37 113 94 128 85 5 -3 10 -2 10
3 0 15 91 51 129 52 26 0 42 -9 72 -39z m-541 -556 c36 -19 38 -42 9 -105 -11
-25 -30 -74 -41 -110 -11 -36 -29 -89 -40 -117 -19 -52 -20 -53 -59 -53 -49 0
-109 24 -109 44 0 8 4 25 9 38 5 13 18 67 29 120 18 82 53 178 66 178 2 0 2
-10 0 -22 -4 -21 -4 -21 6 2 6 13 16 28 23 32 20 13 76 9 107 -7z m-205 -605
c3 -5 1 -10 -4 -10 -6 0 -11 5 -11 10 0 6 2 10 4 10 3 0 8 -4 11 -10z m105
-29 c-8 -17 -20 -21 -59 -21 -29 0 -53 6 -60 14 -9 11 -2 14 36 19 31 3 51 1
56 -6 6 -9 11 -7 20 5 15 23 21 15 7 -11z"/>
<path d="M3645 6720 c10 -11 20 -20 23 -20 3 0 -3 9 -13 20 -10 11 -20 20 -23
20 -3 0 3 -9 13 -20z"/>
<path d="M3641 7641 c-8 -5 -9 -11 -3 -15 14 -8 43 4 36 15 -7 11 -15 11 -33
0z"/>
<path d="M5920 7236 c0 -2 7 -9 15 -16 9 -7 15 -8 15 -2 0 5 -7 12 -15 16 -8
3 -15 4 -15 2z"/>
<path d="M6340 6665 c0 -8 4 -15 10 -15 5 0 7 7 4 15 -4 8 -8 15 -10 15 -2 0
-4 -7 -4 -15z"/>
<path d="M6368 6595 c9 -25 20 -45 24 -45 12 0 10 7 -12 50 -27 53 -33 51 -12
-5z"/>
<path d="M6391 6533 c0 -5 4 -17 9 -28 8 -18 9 -17 9 8 1 15 -3 27 -9 27 -5 0
-10 -3 -9 -7z"/>
<path d="M6410 6471 c0 -6 4 -13 10 -16 6 -3 7 1 4 9 -7 18 -14 21 -14 7z"/>
<path d="M6970 5673 c0 -18 2 -33 4 -33 9 0 13 39 5 51 -6 10 -9 4 -9 -18z"/>
<path d="M2900 5040 c0 -11 4 -20 9 -20 5 0 7 9 4 20 -3 11 -7 20 -9 20 -2 0
-4 -9 -4 -20z"/>
<path d="M2915 5000 c3 -5 8 -10 11 -10 2 0 4 5 4 10 0 6 -5 10 -11 10 -5 0
-7 -4 -4 -10z"/>
<path d="M2980 4878 c0 -9 5 -20 10 -23 13 -8 13 5 0 25 -8 13 -10 13 -10 -2z"/>
<path d="M6905 4757 c-92 -92 -45 -225 86 -241 30 -4 61 -11 68 -16 18 -10 77
17 106 50 16 17 20 36 20 85 0 56 -3 67 -28 93 l-29 30 -44 -19 c-56 -25 -93
-17 -101 22 -8 39 -36 38 -78 -4z"/>
<path d="M3060 4758 c0 -9 7 -22 17 -29 15 -13 15 -12 3 11 -17 34 -20 36 -20
18z"/>
<path d="M5660 4404 c0 -8 5 -12 10 -9 6 4 8 11 5 16 -9 14 -15 11 -15 -7z"/>
<path d="M4070 4290 c0 -5 5 -10 11 -10 5 0 7 5 4 10 -3 6 -8 10 -11 10 -2 0
-4 -4 -4 -10z"/>
<path d="M4682 3300 c0 -14 2 -19 5 -12 2 6 2 18 0 25 -3 6 -5 1 -5 -13z"/>
<path d="M3136 3583 c-71 -21 -165 -117 -195 -198 -19 -50 -22 -75 -19 -150 5
-110 35 -183 102 -248 74 -72 124 -92 236 -92 83 0 102 3 150 27 78 39 155
121 180 193 25 72 26 180 4 255 -22 73 -134 188 -208 213 -62 21 -183 21 -250
0z"/>
<path d="M2736 3004 c18 -44 44 -77 44 -56 0 19 -26 66 -44 81 -14 12 -14 10
0 -25z"/>
</g>
</svg>
